<svg xmlns="http://www.w3.org/2000/svg" width="501" height="605" viewBox="0 0 501 605" fill="none"><mask id="mask0_2738_11176" style="mask-type:alpha" maskUnits="userSpaceOnUse" x="0" y="0" width="501" height="605"><rect width="501" height="605" fill="#D9D9D9"></rect></mask><g mask="url(#mask0_2738_11176)"><g opacity="0.15"><path fill-rule="evenodd" clip-rule="evenodd" d="M23.2657 7.41042C32.5887 10.5394 42.2246 13.7822 51.6101 16.769C96.7317 31.1339 147.802 49.6235 182.786 87.5341C209.192 116.15 216.19 154.466 222.961 191.531C224.809 201.672 226.72 212.147 229.003 222.252C234.583 246.971 241.46 271.761 250.028 298.03C252.657 306.123 255.149 314.579 257.554 322.771C262.729 340.379 268.084 358.572 275.497 375.344C286.644 400.517 308.433 407.516 326.176 410.813C348.52 414.945 372.203 419.946 394.46 431.422C429.219 449.357 454.419 480.364 473.76 528.995C483.647 553.865 492.502 579.63 501 604.873V582.608C494.524 563.761 487.754 544.81 480.401 526.321C460.661 476.666 433.611 443.524 397.724 425.015C374.598 413.089 350.335 407.949 327.471 403.712C303.363 399.25 289.777 389.894 282.043 372.41C274.811 356.071 269.525 338.103 264.421 320.723C261.998 312.495 259.49 303.969 256.824 295.79C248.326 269.734 241.512 245.15 235.983 220.652C233.734 210.682 231.842 200.285 230 190.229C223.047 152.155 215.851 112.779 188.029 82.6273C151.855 43.4224 99.7626 24.5346 53.7613 9.89941C44.4383 6.92686 34.8288 3.6983 25.5328 0.569303C24.9674 0.384407 24.395 0.192364 23.831 0.000356675H0.999999C8.46551 2.43244 15.8876 4.92856 23.2657 7.41042Z" fill="white"></path><path fill-rule="evenodd" clip-rule="evenodd" d="M249.141 33.9934C273.557 45.7197 287.177 59.014 291.988 75.8344C297.736 95.9034 292.255 117.173 286.958 137.722C286.37 139.973 285.794 142.208 285.235 144.444C269.406 207.539 272.77 258.833 295.527 301.252C317.514 342.245 355.366 367.611 391.971 392.136C429.181 417.064 467.657 442.837 489.314 485.02C493.787 493.719 497.618 502.769 501 512V506.651C498.031 498.977 494.741 491.448 490.992 484.14C469.115 441.517 430.428 415.619 393.026 390.544C356.603 366.148 318.954 340.925 297.186 300.352C274.667 258.368 271.358 207.524 287.067 144.902C287.626 142.681 288.204 140.453 288.78 138.202C293.895 118.358 299.697 95.8884 293.813 75.3167C287.269 52.4569 265.648 39.8228 249.958 32.2904C220.821 18.3209 190.137 8.20763 159.461 -8.01307e-06H152C184.894 8.51523 217.925 19.0336 249.141 33.9934" fill="white"></path><path fill-rule="evenodd" clip-rule="evenodd" d="M321.442 26.3185C343.669 39.1371 355.587 52.6706 358.935 68.9112C362.937 88.2889 356.248 108.003 349.784 127.05C349.068 129.136 348.365 131.208 347.678 133.282C328.242 191.795 327.771 240.517 346.249 282.229C364.1 322.538 398.048 349.203 430.877 374.986C464.249 401.192 498.756 428.286 516.213 469.696C519.818 478.236 522.793 487.063 525.331 496.028L525.711 490.972C523.452 483.507 520.88 476.158 517.859 468.984C500.228 427.142 465.529 399.914 431.987 373.556C399.32 347.908 365.554 321.392 347.88 281.496C329.596 240.212 330.086 191.919 349.376 133.844C350.062 131.785 350.767 129.72 351.47 127.633C357.713 109.24 364.79 88.414 360.695 68.5515C356.141 46.4793 336.617 33.0013 322.334 24.7668C295.808 9.49254 267.547 -2.24677 239.156 -12.1843L232.11 -12.7144C262.573 -2.32855 293.022 9.96037 321.442 26.3185" fill="white"></path><path fill-rule="evenodd" clip-rule="evenodd" d="M379.448 257.446C397.183 298.052 430.961 324.025 463.621 349.137C481.71 363.053 500.138 377.233 516 394V391.336C500.339 375.02 482.335 361.16 464.653 347.563C432.175 322.581 398.595 296.754 381.06 256.616C344.759 173.497 423.537 96.9771 475.666 46.3453L481.988 40.169C493.781 28.6768 505.463 16.5009 516 3.03439V1.02453e-05C505.168 14.081 493.053 26.7793 480.801 38.7248L474.478 44.878C421.95 95.9093 342.574 173.013 379.448 257.446" fill="white"></path><path fill-rule="evenodd" clip-rule="evenodd" d="M417.493 233.722C419.257 266.363 440.056 290.272 457.982 307.446C471.506 320.395 486.601 332.478 503 343.557V341.367C487.071 330.529 472.391 318.76 459.214 306.137C441.531 289.177 421.001 265.638 419.281 233.615C417.719 204.558 431.288 179.918 442.947 164.379C459.795 141.914 481.689 123.773 503 106.286V103.961C481.246 121.789 458.789 140.265 441.522 163.305C429.682 179.085 415.906 204.103 417.493 233.722" fill="white"></path><path fill-rule="evenodd" clip-rule="evenodd" d="M501 296.142C485.14 281.139 474.814 263.418 471.296 244.596C465.311 212.609 482.42 183.365 501 162.148V159C481.514 180.714 462.952 211.284 469.25 244.977C472.959 264.818 484.013 283.425 501 299V296.142" fill="white"></path><path d="M501 296.142C485.14 281.139 474.814 263.418 471.296 244.596C465.311 212.609 482.42 183.365 501 162.148V159C481.514 180.714 462.952 211.284 469.25 244.977C472.959 264.818 484.013 283.425 501 299V296.142" stroke="white" stroke-width="4"></path></g></g></svg>