<svg xmlns="http://www.w3.org/2000/svg" width="649" height="623" viewBox="0 0 649 623" fill="none"><g opacity="0.4"><path d="M410.633 394.026C379.721 383.201 327.815 460.276 349.24 478.472C362.413 489.661 394.302 488.263 420.308 484.586C444.721 481.134 479.604 467.021 488.21 443.582C492.767 431.139 490.032 413.411 480.38 407.203C472.911 402.399 462.827 404.56 460.603 403.761C449.998 408.159 448.442 409.868 439.993 410.9C428.95 412.249 419.135 397.003 410.633 394.026Z" stroke="#D9DBE3" stroke-width="2" stroke-miterlimit="10"></path><path d="M379.269 356.118C343.366 361.848 304.352 474.425 343.298 500.333C368.101 516.833 411.341 509.547 441.481 500.824C469.167 492.811 515.267 466.072 524.594 427.75C530.016 405.484 523.428 374.16 504.551 365.1C489.504 357.879 470.117 364.088 466.703 364.566C446.526 375.417 444.894 380.938 429.87 384.655C409.978 389.57 394.273 353.711 379.269 356.118Z" stroke="#D9DBE3" stroke-width="2" stroke-miterlimit="10"></path><path d="M350.177 318.461C310.537 329.025 283.163 488.734 339.628 522.442C376.071 544.194 430.676 531.145 464.927 517.311C495.912 504.799 553.037 465.427 563.251 412.167C569.414 380.048 559.13 335.197 530.999 323.245C508.394 313.638 479.525 323.497 475.083 325.619C444.026 340.462 443.633 352.257 422.011 358.659C393.29 367.185 370.938 312.94 350.177 318.461Z" stroke="#D9DBE3" stroke-width="2" stroke-miterlimit="10"></path><path d="M322.835 282.517C278.936 297.757 263.795 504.596 337.709 546.267C385.84 573.16 451.787 554.493 490.12 535.517C524.44 518.532 592.516 466.53 603.671 398.296C610.528 356.353 596.595 297.96 559.205 283.097C529.03 271.112 490.91 285.169 485.219 288.375C445.186 310.93 444.151 325.338 415.937 334.378C378.381 346.517 349.113 273.398 322.835 282.517Z" stroke="#D9DBE3" stroke-width="2" stroke-miterlimit="10"></path><path d="M180.327 217.23C195.191 217.106 213.016 191.339 199.686 187.036C191.987 184.548 171.603 188.484 163.597 195.488C152.321 205.344 170.1 217.319 180.327 217.23Z" stroke="#D9DBE3" stroke-width="2" stroke-miterlimit="10"></path><path d="M220.721 190.645C219.267 187.187 212.456 185.651 206.241 181.44C193.635 172.894 191.826 168.834 182.873 163.68C179.381 161.666 174.683 159.02 170.096 160.231C163.073 162.088 161.32 170.124 152.406 184.276C140.848 202.666 136.471 207.42 139.773 217.165C140.543 219.431 141.539 226.769 147.105 231.245C154.814 237.434 163.849 232.653 175.145 236.75C188.711 241.661 195.437 250.404 201.324 246.54C205.471 243.819 205.625 236.366 208.731 223.39C211.096 213.504 212.583 207.017 215.46 201.726C218.909 195.426 222.339 194.489 220.721 190.645Z" stroke="#D9DBE3" stroke-width="2" stroke-miterlimit="10"></path><path d="M243.44 197.852C243.188 191.722 233.557 188.756 225.619 179.898C209.34 161.728 216.882 148.745 203.833 135.47C198.297 129.834 189.608 124.376 180.901 125.434C168.544 126.937 164.393 139.697 145.369 165.569C120.497 199.394 109.902 206.019 112.225 224.045C112.7 227.719 113.162 241.825 122.882 250.316C135.845 261.639 151.384 251.337 171.679 259.848C194.355 269.344 202.831 289.646 210.477 285.444C215.787 282.527 213.753 270.778 217.835 247.863C220.724 231.576 222.51 222.057 228.285 214.26C235.575 204.427 243.712 204.509 243.44 197.852Z" stroke="#D9DBE3" stroke-width="2" stroke-miterlimit="10"></path><path d="M266.183 204.981C267.166 196.195 254.694 191.778 245.02 178.274C225.101 150.473 242.274 128.744 224.816 107.178C217.344 97.9508 204.528 89.6958 191.728 90.557C173.988 91.7489 167.433 109.136 138.329 146.783C100.064 195.972 83.5858 204.633 84.6669 230.846C84.8798 235.957 84.7816 256.796 98.6491 269.318C116.871 285.765 138.944 269.923 168.2 282.874C200.01 296.954 210.205 328.805 219.633 324.28C226.104 321.149 221.959 305.118 226.942 272.265C230.382 249.576 232.456 237.071 241.118 226.723C252.283 213.389 265.131 214.444 266.183 204.981Z" stroke="#D9DBE3" stroke-width="2" stroke-miterlimit="10"></path><path d="M288.978 212.089C291.182 200.658 275.906 194.774 264.473 176.633C240.957 139.186 267.798 108.796 245.848 78.8703C236.466 66.0671 219.489 55.0124 202.605 55.6608C179.469 56.5514 170.614 78.6248 131.354 127.981C79.8184 192.619 57.3905 203.294 57.1907 237.63C57.1514 244.179 56.5027 271.731 74.5013 288.3C98.0036 309.853 126.571 288.48 164.806 305.884C205.756 324.529 217.671 367.958 228.842 363.099C236.476 359.765 230.218 339.438 236.102 296.65C240.102 267.556 242.451 252.081 253.999 239.169C269.049 222.352 286.606 224.382 288.978 212.089Z" stroke="#D9DBE3" stroke-width="2" stroke-miterlimit="10"></path><path d="M311.815 219.195C308.123 234.323 285.865 231.311 266.933 251.612C252.495 267.091 249.871 285.53 245.311 321.032C238.54 373.751 246.9 398.378 238.104 401.911C225.173 407.108 211.542 352.097 161.444 328.89C114.25 307.03 79.1304 333.979 50.3864 307.279C28.2272 286.692 29.459 252.428 29.7473 244.409C31.274 201.958 59.615 189.26 124.425 109.172C173.844 48.1066 184.989 21.354 213.533 20.7613C234.5 20.3258 255.647 34.1867 266.933 50.5592C293.361 88.8706 256.8 127.938 283.968 174.99C297.135 197.79 315.251 205.121 311.815 219.195Z" stroke="#D9DBE3" stroke-width="2" stroke-miterlimit="10"></path><path d="M112.006 498.23C105.394 492.051 102.505 480.712 99.1994 461.274C95.9234 442.001 96.4378 428.202 99.3174 427.2C100.887 426.66 105.332 430.887 109.146 433.985C116.284 439.768 128.504 439.126 131.636 439.751C143.102 442.043 146.47 446.3 151.262 454.454C153.48 458.219 158.653 466.569 160.93 476.393C164.403 491.269 179.967 495.853 178.07 501.816C176.475 506.793 161.054 508.001 151.056 508.142C136.727 508.345 122.227 507.772 112.006 498.23Z" stroke="#D9DBE3" stroke-width="2" stroke-miterlimit="10"></path><path d="M100.546 514.842C89.6793 503.8 85.4041 485.27 78.8192 450.616C72.1295 415.795 72.1721 391.911 75.4678 391.02C77.9412 390.339 85.9512 398.948 92.7588 405.101C105.591 416.748 128.563 414.832 133.297 415.579C154.886 418.912 160.206 426.899 168.573 441.994C172.059 448.281 181.622 463.606 185.979 481.704C192.685 509.429 224.479 516.689 221.848 526.967C219.65 535.527 190.165 536.84 171.613 536.136C145.418 535.117 118.908 533.506 100.546 514.842Z" stroke="#D9DBE3" stroke-width="2" stroke-miterlimit="10"></path><path d="M89.1486 531.345C74.0165 515.444 68.4046 489.71 58.5044 439.85C48.4502 389.472 47.9817 355.558 51.6837 354.713C55.0744 353.927 66.6421 366.894 76.4244 376.118C94.9177 393.66 128.671 390.434 135.01 391.279C166.716 395.51 174.018 407.34 185.936 429.41C190.693 438.216 204.639 460.518 211.083 486.881C221.013 527.458 269.04 537.387 265.682 551.984C262.877 564.126 219.322 565.596 192.223 563.989C154.168 561.844 115.609 559.152 89.1486 531.345Z" stroke="#D9DBE3" stroke-width="2" stroke-miterlimit="10"></path><path d="M560.794 185.14C554.897 207.734 512.571 197.122 462.185 248.011C444.131 266.246 432.026 285.32 408.131 288.287C405.719 288.585 381.781 291.201 364.887 275.844C343.632 256.524 356.605 229.723 331.799 192.344C322.662 178.575 321.142 182.573 314.436 171.715C285.816 125.365 329.466 78.3104 304.28 31.2397C292.686 9.57242 275.451 4.59848 277.089 1.76932C284.158 -10.3692 576.729 124.258 560.794 185.14Z" stroke="#D9DBE3" stroke-width="2" stroke-miterlimit="10"></path><path d="M401.578 257.399C400.13 257.202 384.346 258.381 373.519 247.523C359.829 233.812 369.588 214.935 353.902 189.45C348.13 180.065 347.327 182.609 343.219 175.186C325.692 143.509 357.149 111.641 341.745 80.632C334.616 66.2767 323.363 62.9858 325.037 61.5843C332.608 55.1925 525.721 149.619 510.553 190.707C504.866 206.117 473.819 200.648 438.293 233.839C425.376 245.899 416.629 259.439 401.578 257.399Z" stroke="#D9DBE3" stroke-width="2" stroke-miterlimit="10"></path><path d="M395.026 226.507C394.614 225.469 386.895 225.492 382.152 219.202C375.993 211.042 382.551 200.17 376.006 186.558C373.604 181.561 373.506 182.629 371.999 178.657C365.529 161.574 384.858 144.992 379.206 130.021C376.563 122.974 371.648 121.773 372.959 121.396C382.538 122.755 474.516 175.071 460.328 196.274C454.788 204.558 434.958 204.162 414.417 219.667C406.61 225.561 401.5 229.876 395.026 226.507Z" stroke="#D9DBE3" stroke-width="2" stroke-miterlimit="10"></path><path d="M388.474 195.619C393.559 180.769 413.575 175.72 420.907 181.211C431.718 189.319 422.496 199.876 410.096 201.84C400.828 203.297 382.656 212.613 388.474 195.619Z" stroke="#D9DBE3" stroke-width="2" stroke-miterlimit="10"></path></g><path opacity="0.4" d="M122.934 462.685C126.813 460.721 134.958 464.506 135.678 470.403C136.494 477.093 127.278 482.627 123.229 480.908C118.44 478.871 117.788 465.285 122.934 462.685Z" stroke="#D9DBE3" stroke-width="4" stroke-miterlimit="10"></path><path opacity="0.4" d="M138.512 342.643C190.447 348.537 201.74 368.184 220.741 404.204C228.046 418.051 250.756 454.303 261.364 497.199C277.744 563.481 358.246 578.75 353.421 601.983C349.411 621.302 277.718 622.939 233.517 619.665C171.757 615.08 109.064 610.437 66.439 564.326C42.7564 538.703 34.4877 498.565 17.9535 418.284C1.17031 336.802 -0.32679 282.858 4.19415 282.065C9.43583 281.149 28.1093 302.695 43.8343 318.085C73.7249 347.332 128.959 341.56 138.512 342.643Z" stroke="#D9DBE3" stroke-width="4" stroke-miterlimit="10"></path><path opacity="0.4" d="M496.584 251.613C531.668 233.226 550.907 229.068 588.641 243.427C635.295 261.178 652.851 333.121 645.316 384.885C633.195 468.106 554.216 532.737 516.568 554.175C474.176 578.318 396.759 602.759 337.04 570.548C245.518 521.182 248.24 266.947 296.745 247.029C328.323 234.062 384.658 327.107 411.079 310.554C437.5 294 461.5 270 496.584 251.613Z" stroke="#D9DBE3" stroke-width="4" stroke-miterlimit="10"></path><path opacity="0.4" d="M444.167 430.311C457.7 435.976 462.841 449.863 453.995 457.79C435.797 474.104 360.877 466.045 357.352 454.987C353.879 444.093 415.928 418.487 444.167 430.311Z" stroke="#D9DBE3" stroke-width="4" stroke-miterlimit="10"></path></svg>