<svg xmlns="http://www.w3.org/2000/svg" width="168" height="82" viewBox="0 0 168 82" fill="none"><path d="M28.0656 76.3761C23.3029 76.9565 19.268 76.3517 15.9607 74.5618C12.6534 72.7718 10.0413 70.1577 8.12446 66.7194C6.20138 63.2309 4.97256 59.3262 4.43801 55.0055C4.00913 51.5389 4.16291 48.0012 4.89936 44.3926C5.6296 40.7337 6.9038 37.3145 8.72196 34.135C10.5846 30.8991 12.9524 28.2137 15.8256 26.0786C18.7431 23.8871 22.1273 22.5568 25.9779 22.0875C27.2953 21.927 28.8495 22.0181 30.6405 22.3608C32.476 22.6471 34.2666 23.1939 36.0122 24.0012C37.8023 24.752 39.3133 25.7408 40.5451 26.9677C41.8214 28.1381 42.559 29.5272 42.7579 31.1349C42.876 32.0895 42.5701 32.9428 41.8402 33.6947C41.161 34.4404 40.3148 34.875 39.3014 34.9985C38.1868 35.1344 37.2375 34.944 36.4535 34.4276C35.6696 33.9111 34.8764 33.3193 34.0738 32.6521C33.3219 31.9788 32.402 31.4024 31.3141 30.923C30.2261 30.4436 28.7955 30.3119 27.0222 30.528C24.4382 30.8429 22.1661 31.8083 20.2059 33.4241C18.2457 35.0399 16.6424 37.0458 15.3959 39.4416C14.1938 41.781 13.3428 44.2561 12.8429 46.867C12.3368 49.4276 12.2205 51.8132 12.494 54.0238C12.8297 56.7368 13.5711 59.1964 14.7184 61.4025C15.8594 63.5584 17.4543 65.2255 19.503 66.4038C21.5455 67.5319 24.0361 67.9169 26.9748 67.5588C29.9641 67.1945 32.3473 66.0881 34.1244 64.2396C35.9522 62.3849 37.4516 60.1623 38.6225 57.5716C38.7373 57.2517 38.8204 56.8845 38.872 56.4703C38.9236 56.056 38.9313 55.4941 38.8949 54.7845C38.6798 54.7087 38.4332 54.5858 38.155 54.4157L26.6789 55.8141C25.3616 55.9747 24.2701 55.6742 23.4044 54.9127C22.5894 54.1451 22.098 53.083 21.9302 51.7265C21.7872 50.5709 22.0776 49.5921 22.8012 48.7899C23.5693 47.9313 24.6249 47.3182 25.9681 46.9505L30.4521 46.4041C32.0734 46.2065 33.8054 46.072 35.6481 46.0004C37.4845 45.8786 39.2476 45.9953 40.9373 46.3504C42.627 46.7054 44.0593 47.4744 45.2343 48.6572C46.403 49.7897 47.1334 51.5366 47.4256 53.898C47.7736 56.7115 47.4382 59.4043 46.4192 61.9764C45.4509 64.5423 44.0146 66.8593 42.1104 68.9273C40.1999 70.945 38.0149 72.6138 35.5552 73.9335C33.0955 75.2532 30.599 76.0674 28.0656 76.3761Z" fill="white"></path><path d="M91.4133 67.5543C89.5386 67.7828 87.8551 67.478 86.3628 66.6398C84.8643 65.7515 83.5089 64.5652 82.2967 63.0809C81.1351 61.5905 80.0909 60.0093 79.164 58.3373C78.2371 56.6653 77.408 55.1599 76.6766 53.8211C75.4218 51.5771 74.1706 49.1541 72.9229 46.5522C71.7259 43.9442 70.9658 41.3339 70.6426 38.7213C70.5991 38.3696 70.5271 37.9959 70.4268 37.6002C70.377 37.1982 70.3273 36.7963 70.2776 36.3944C70.1408 35.2891 70.1939 34.2626 70.4366 33.3151C70.6732 32.3173 71.5008 31.7319 72.9195 31.5591C74.0848 31.417 75.0435 31.6827 75.7954 32.3561C76.5979 33.0233 77.2418 33.8628 77.727 34.8746C78.2629 35.8803 78.7103 36.7947 79.0693 37.618C79.2639 38.3592 79.5247 39.2199 79.8516 40.2C80.2293 41.174 80.5785 42.1259 80.8992 43.0558C81.2645 43.9293 81.4844 44.6675 81.559 45.2703C81.6211 45.7728 81.7846 46.2628 82.0494 46.7405C82.3649 47.2121 82.5537 47.699 82.6159 48.2015C82.6346 48.3522 82.8456 48.811 83.2491 49.5778C83.6463 50.2943 84.1097 51.1303 84.6394 52.0858C85.1628 52.991 85.6263 53.8269 86.0297 54.5938C86.4838 55.3544 86.7771 55.8541 86.9095 56.093C87.4143 56.8475 87.8844 57.5297 88.3199 58.1396C88.7998 58.6931 89.2171 58.9482 89.5718 58.905C90.0784 58.8433 90.5002 58.5114 90.8372 57.9093C91.2186 57.2509 91.5178 56.5514 91.7348 55.811C92.0025 55.0644 92.1905 54.506 92.299 54.1358L97.2799 35.7813C97.713 34.7086 98.2406 33.7773 98.8629 32.9875C99.5297 32.1413 100.496 31.641 101.763 31.4866C102.979 31.3384 103.937 31.8082 104.638 32.8958L104.936 35.3074C105.141 36.9653 105.169 38.6449 105.019 40.3461C104.87 42.0472 104.508 43.6977 103.935 45.2976L98.3234 61.0514C97.7436 62.6011 96.8665 64.0339 95.6922 65.35C94.5116 66.6158 93.0853 67.3506 91.4133 67.5543Z" fill="white"></path><path d="M132.779 62.9764C129.131 63.4209 125.693 63.2789 122.466 62.5502C119.283 61.7651 116.602 60.2559 114.423 58.0225C112.237 55.7389 110.899 52.6125 110.408 48.6435C110.035 45.629 110.153 42.6313 110.761 39.6502C111.42 36.663 112.544 33.8996 114.133 31.3601C115.715 28.7703 117.74 26.6366 120.207 24.959C122.667 23.2312 125.544 22.1667 128.838 21.7653C131.067 21.4937 133.2 21.6927 135.238 22.3624C137.319 22.9757 139.048 24.0655 140.425 25.6317C141.846 27.1414 142.706 29.1021 143.004 31.5137C143.29 33.8248 143.082 36.0941 142.381 38.3215C141.679 40.5489 140.595 42.5935 139.128 44.4552C137.661 46.3169 135.923 47.8547 133.913 49.0686C131.947 50.2261 129.825 50.9438 127.545 51.2216C127.19 51.2648 126.395 51.2852 125.161 51.2826C123.92 51.2298 122.932 51.1462 122.198 51.0316C121.679 50.9929 121.249 50.8413 120.908 50.5769C120.8 50.539 120.613 50.4853 120.348 50.4157C120.076 50.2958 119.889 50.2421 119.788 50.2544C120.323 51.6682 121.209 52.8096 122.448 53.6786C123.732 54.4911 125.136 55.034 126.662 55.3071C128.237 55.574 129.709 55.6242 131.077 55.4575C132.04 55.3402 132.997 55.1726 133.947 54.9548C134.941 54.6806 135.996 54.4756 137.111 54.3398C138.225 54.2039 139.225 54.3881 140.111 54.8922C140.996 55.3963 141.523 56.3266 141.69 57.6831C141.827 58.7884 141.578 59.6857 140.943 60.3751C140.359 61.0582 139.548 61.5651 138.509 61.8957C137.52 62.2202 136.494 62.4472 135.43 62.5769C134.423 62.7506 133.539 62.8838 132.779 62.9764ZM126.463 42.4796C127.983 42.2944 129.444 41.8359 130.845 41.1042C132.29 40.3161 133.423 39.2856 134.242 38.0128C135.113 36.7337 135.442 35.2401 135.231 33.5319C135.051 32.0749 134.452 30.975 133.434 30.232C132.467 29.4829 131.249 29.1978 129.779 29.3769C128.462 29.5374 127.112 30.0589 125.73 30.9413C124.348 31.8237 123.066 32.8979 121.886 34.1637C120.756 35.4234 119.866 36.7557 119.217 38.1608C118.562 39.5156 118.309 40.7959 118.458 42.0017L118.495 42.3031C119.837 42.3436 121.186 42.4342 122.541 42.5752C123.889 42.6658 125.196 42.634 126.463 42.4796Z" fill="white"></path><path fill-rule="evenodd" clip-rule="evenodd" d="M59.3517 69.8288C59.9827 70.7718 60.7795 71.1847 61.7422 71.0674C63.3129 70.876 64.3907 70.2347 64.9757 69.1434C65.5545 68.0019 65.8676 66.7908 65.9148 65.5101C65.9612 64.6375 65.9377 63.8243 65.8445 63.0707C65.7575 62.3673 65.6513 61.7173 65.5261 61.1206C65.3946 60.4736 65.2885 59.8236 65.2077 59.1704C65.0274 57.7134 64.856 56.5359 64.6935 55.6377L64.4138 53.3769C64.2894 52.372 64.2184 51.5902 64.2007 51.0314C64.2275 50.4161 64.2671 49.6973 64.3197 48.8749C64.4167 47.9961 64.3894 49.3821 64.5265 47.5804C64.5781 47.1661 64.6106 46.8052 64.624 46.4976C64.6311 46.1397 64.6285 45.9105 64.616 45.81L64.2897 43.1724C64.1778 42.268 64.0184 41.395 63.8114 40.5532C63.6044 39.7115 63.188 39.0482 62.5623 38.5635C61.9811 38.0224 61.0825 37.8259 59.8665 37.9741C58.7518 38.1099 57.9464 38.667 57.4503 39.6455C56.9541 40.6239 56.654 41.7314 56.5499 42.9681C56.4964 44.1986 56.4558 45.3255 56.4281 46.3488C56.4262 47.165 56.5553 45.5627 56.5267 46.9942C56.5425 48.3692 56.5422 51.1876 56.526 52.7195C56.5542 54.1951 56.5609 54.1298 56.5456 55.2536C56.5748 56.321 56.605 56.9803 56.636 57.2316L57.8388 66.9532C58.2164 67.9272 58.7207 68.8857 59.3517 69.8288Z" fill="white"></path><path d="M157.061 44.9775C156.477 44.9978 155.886 44.841 155.289 44.5072C154.755 44.1205 154.311 43.5281 153.958 42.73C153.744 42.1803 153.594 41.6284 153.51 41.0741C153.425 40.5199 153.374 39.9899 153.356 39.484C153.34 39.0287 153.324 38.5734 153.309 38.1181C153.356 37.61 153.373 37.1789 153.361 36.8247C153.314 35.5095 153.271 34.2701 153.23 33.1065C153.252 31.8902 153.245 30.7508 153.208 29.6884C153.179 28.879 153.119 28.0961 153.028 27.3395C153.001 26.5807 152.942 25.823 152.85 25.0664C152.648 22.9968 152.435 20.649 152.213 18.0229C152.055 15.3946 151.875 13.0456 151.673 10.976C151.551 9.35946 151.656 7.73501 151.989 6.10265C152.385 4.41745 153.474 3.01209 155.256 1.88658C156.019 1.40421 156.726 1.15175 157.375 1.12919C158.739 1.08181 159.775 1.88155 160.483 3.52839C161.255 5.12239 161.684 7.1588 161.771 9.63762C161.821 11.0541 161.805 12.4475 161.723 13.8179C161.706 15.186 161.675 16.1748 161.632 16.7841C161.583 19.1156 161.504 21.4736 161.392 23.858C161.279 26.1918 161.199 28.5498 161.153 30.932C161.089 32.8083 161.091 34.7329 161.161 36.7058C161.295 38.6765 161.037 40.5848 160.386 42.4308C160.151 43.148 159.717 43.7456 159.083 44.2235C158.45 44.7013 157.776 44.9526 157.061 44.9775ZM156.467 61.4086C155.233 61.4515 154.115 61.0851 153.112 60.3095C152.108 59.4834 151.575 58.2103 151.515 56.4903C151.437 54.2644 152.028 52.5725 153.288 51.4144C154.548 50.2564 155.892 49.6525 157.321 49.6029C158.555 49.56 159.675 49.9517 160.679 50.7778C161.682 51.5534 162.214 52.8265 162.276 54.597C162.353 56.7723 161.761 58.439 160.501 59.5971C159.241 60.7551 157.896 61.359 156.467 61.4086Z" fill="white"></path><path d="M50.5198 13.3674C52.9352 13.8869 55.0846 14.9431 56.9375 16.7084C58.5737 15.0065 60.2815 13.4207 62.7508 13.3154C66.4702 13.1588 68.8753 16.9343 67.7021 21.1153C66.4309 25.6415 63.6025 29.1627 60.3784 32.4043C60.2317 32.5515 59.9128 32.7369 59.792 32.6728C54.2514 29.7659 48.2131 27.3328 45.5782 20.9825C44.2606 17.8146 45.7598 15.2371 48.7046 13.5931C49.3104 13.5178 49.914 13.4427 50.5198 13.3674ZM50.1345 25.0149C48.7728 21.1783 48.0413 18.2143 50.5086 15.379C48.8598 15.2969 47.772 15.8401 47.2924 17.2274C46.2826 20.1437 47.8976 22.2028 50.1345 25.0149ZM64.1458 15.069C61.654 14.6151 60.1724 15.6755 58.8657 17.7546C60.7349 16.8042 62.3367 15.989 64.1458 15.069Z" fill="white"></path></svg>