<svg width="122" height="60" viewBox="0 0 122 60" fill="none" xmlns="http://www.w3.org/2000/svg">
<path d="M20.381 55.8849C16.9224 56.3096 13.9922 55.8671 11.5905 54.5574C9.18878 53.2477 7.29191 51.3349 5.8999 48.8191C4.50338 46.2665 3.61103 43.4094 3.22284 40.2479C2.91139 37.7114 3.02307 35.1228 3.55787 32.4824C4.08816 29.8051 5.01347 27.3033 6.3338 24.9769C7.68642 22.6091 9.40594 20.6441 11.4924 19.0819C13.6111 17.4784 16.0686 16.5049 18.8649 16.1616C19.8216 16.0441 20.9502 16.1108 22.2508 16.3616C23.5838 16.5711 24.8841 16.9712 26.1517 17.5618C27.4517 18.1112 28.5489 18.8348 29.4435 19.7325C30.3703 20.5889 30.9059 21.6053 31.0504 22.7817C31.1361 23.4801 30.914 24.1045 30.384 24.6546C29.8907 25.2003 29.2762 25.5183 28.5403 25.6087C27.7309 25.7081 27.0415 25.5688 26.4722 25.1909C25.9029 24.813 25.3269 24.38 24.7441 23.8918C24.198 23.3991 23.53 22.9774 22.74 22.6266C21.9499 22.2758 20.911 22.1795 19.6232 22.3376C17.7468 22.568 16.0968 23.2743 14.6733 24.4567C13.2499 25.639 12.0855 27.1066 11.1803 28.8597C10.3074 30.5715 9.68943 32.3825 9.32642 34.2929C8.9589 36.1665 8.87444 37.9121 9.07304 39.5296C9.31679 41.5148 9.85522 43.3144 10.6883 44.9287C11.517 46.5062 12.6751 47.726 14.1629 48.5882C15.6461 49.4136 17.4548 49.6953 19.5888 49.4332C21.7596 49.1667 23.4903 48.3571 24.7808 47.0046C26.1081 45.6475 27.197 44.0212 28.0473 42.1256C28.1306 41.8915 28.191 41.6228 28.2285 41.3197C28.266 41.0166 28.2715 40.6054 28.2451 40.0862C28.0889 40.0308 27.9098 39.9408 27.7078 39.8164L19.374 40.8396C18.4174 40.9571 17.6247 40.7372 16.9961 40.18C16.4042 39.6183 16.0474 38.8412 15.9255 37.8486C15.8217 37.0031 16.0325 36.2869 16.558 35.6999C17.1158 35.0717 17.8824 34.6231 18.8578 34.354L22.114 33.9542C23.2914 33.8097 24.5492 33.7112 25.8873 33.6588C27.2209 33.5697 28.5012 33.6551 29.7283 33.9149C30.9553 34.1747 31.9955 34.7373 32.8487 35.6028C33.6974 36.4315 34.2278 37.7097 34.44 39.4375C34.6928 41.4962 34.4492 43.4665 33.7092 45.3486C33.006 47.2261 31.963 48.9214 30.5802 50.4346C29.1928 51.911 27.606 53.132 25.8198 54.0977C24.0336 55.0633 22.2207 55.6591 20.381 55.8849Z" fill="#333356"/>
<path d="M66.3835 49.43C65.0221 49.5972 63.7996 49.3741 62.7159 48.7609C61.6276 48.1108 60.6434 47.2428 59.7631 46.1568C58.9195 45.0662 58.1612 43.9093 57.4881 42.6859C56.815 41.4624 56.2129 40.3609 55.6818 39.3813C54.7706 37.7393 53.862 35.9664 52.9559 34.0626C52.0867 32.1543 51.5347 30.2443 51.3 28.3327C51.2684 28.0753 51.2161 27.8019 51.1432 27.5123C51.1071 27.2182 51.071 26.9241 51.0349 26.63C50.9356 25.8213 50.9741 25.0702 51.1504 24.3769C51.3222 23.6468 51.9232 23.2185 52.9535 23.092C53.7997 22.9881 54.4958 23.1825 55.0419 23.6752C55.6247 24.1634 56.0923 24.7776 56.4446 25.518C56.8338 26.2539 57.1587 26.923 57.4194 27.5253C57.5607 28.0677 57.7501 28.6975 57.9875 29.4147C58.2617 30.1273 58.5153 30.8238 58.7483 31.5042C59.0135 32.1434 59.1732 32.6835 59.2273 33.1246C59.2725 33.4923 59.3912 33.8508 59.5835 34.2004C59.8126 34.5454 59.9497 34.9017 59.9949 35.2694C60.0084 35.3796 60.1617 35.7153 60.4547 36.2764C60.7431 36.8007 61.0797 37.4124 61.4643 38.1115C61.8444 38.7739 62.181 39.3856 62.474 39.9467C62.8037 40.5032 63.0167 40.8689 63.1129 41.0437C63.4794 41.5957 63.8208 42.0949 64.1371 42.5412C64.4856 42.9462 64.7886 43.1328 65.0462 43.1012C65.4141 43.056 65.7204 42.8132 65.9651 42.3727C66.2421 41.8909 66.4594 41.3791 66.617 40.8373C66.8113 40.291 66.9479 39.8824 67.0267 39.6116L70.6438 26.1815C70.9582 25.3965 71.3414 24.7151 71.7933 24.1372C72.2775 23.518 72.9796 23.1519 73.8994 23.039C74.7824 22.9306 75.4782 23.2743 75.9868 24.0701L76.2035 25.8347C76.3524 27.0478 76.3726 28.2767 76.264 29.5215C76.1554 30.7663 75.8928 31.974 75.4763 33.1446L71.4015 44.6718C70.9805 45.8057 70.3436 46.8541 69.4907 47.8171C68.6334 48.7433 67.5977 49.2809 66.3835 49.43Z" fill="#333356"/>
<path d="M96.4229 46.0803C93.7738 46.4056 91.2774 46.3016 88.9336 45.7684C86.6222 45.194 84.6752 44.0897 83.0927 42.4555C81.5056 40.7845 80.5338 38.497 80.1772 35.5928C79.9064 33.3871 79.9918 31.1936 80.4336 29.0123C80.9122 26.8266 81.7284 24.8046 82.8821 22.9464C84.0313 21.0514 85.5017 19.4902 87.2931 18.2627C89.0799 16.9985 91.1692 16.2195 93.5608 15.9259C95.1797 15.7271 96.7289 15.8727 98.2083 16.3628C99.72 16.8115 100.976 17.6089 101.975 18.7549C103.007 19.8596 103.632 21.2942 103.848 23.0588C104.056 24.7498 103.905 26.4103 103.396 28.0401C102.886 29.6699 102.099 31.166 101.033 32.5282C99.9682 33.8904 98.7058 35.0157 97.2463 35.9039C95.819 36.7508 94.2775 37.2759 92.6218 37.4792C92.3642 37.5108 91.7871 37.5257 90.8905 37.5239C89.9894 37.4852 89.2723 37.424 88.7391 37.3402C88.3622 37.3119 88.0498 37.201 87.8019 37.0075C87.7238 36.9798 87.5883 36.9405 87.3953 36.8895C87.1978 36.8018 87.0622 36.7625 86.9886 36.7715C87.3771 37.806 88.0212 38.6412 88.9209 39.277C89.8529 39.8716 90.8728 40.2688 91.9804 40.4686C93.1248 40.6639 94.1938 40.7006 95.1872 40.5786C95.8863 40.4928 96.5808 40.3702 97.2709 40.2108C97.9932 40.0102 98.7591 39.8602 99.5686 39.7608C100.378 39.6614 101.104 39.7961 101.747 40.165C102.39 40.5339 102.772 41.2146 102.894 42.2071C102.993 43.0159 102.813 43.6725 102.352 44.1769C101.928 44.6767 101.338 45.0476 100.584 45.2896C99.8658 45.527 99.1205 45.6931 98.3478 45.788C97.6165 45.9151 96.9748 46.0125 96.4229 46.0803ZM91.8364 31.0827C92.9402 30.9471 94.0008 30.6117 95.0181 30.0763C96.0678 29.4996 96.8902 28.7456 97.4855 27.8142C98.1175 26.8784 98.3568 25.7855 98.2034 24.5356C98.0725 23.4695 97.6375 22.6646 96.8985 22.121C96.1963 21.5728 95.3116 21.3643 94.2446 21.4953C93.288 21.6127 92.3078 21.9943 91.3039 22.64C90.3001 23.2857 89.3695 24.0716 88.5122 24.9978C87.6916 25.9195 87.0457 26.8944 86.5744 27.9225C86.0985 28.9138 85.9147 29.8507 86.0231 30.7329L86.0502 30.9535C87.0249 30.9831 88.0041 31.0494 88.9878 31.1526C89.967 31.2189 90.9165 31.1956 91.8364 31.0827Z" fill="#333356"/>
<path fill-rule="evenodd" clip-rule="evenodd" d="M43.1007 51.0942C43.5589 51.7843 44.1375 52.0864 44.8366 52.0006C45.9772 51.8605 46.7599 51.3912 47.1848 50.5928C47.6051 49.7575 47.8324 48.8713 47.8667 47.9342C47.9004 47.2957 47.8834 46.7007 47.8157 46.1493C47.7525 45.6346 47.6754 45.159 47.5844 44.7224C47.489 44.249 47.4119 43.7733 47.3532 43.2954C47.2223 42.2294 47.0978 41.3677 46.9798 40.7105L46.7767 39.0562C46.6864 38.321 46.6348 37.7489 46.622 37.34C46.6414 36.8899 46.6702 36.3639 46.7083 35.7622C46.7788 35.1191 46.7589 36.1332 46.8585 34.8149C46.896 34.5118 46.9196 34.2477 46.9293 34.0226C46.9345 33.7608 46.9326 33.5931 46.9236 33.5195L46.6866 31.5895C46.6053 30.9278 46.4896 30.289 46.3392 29.6731C46.1889 29.0572 45.8866 28.5719 45.4322 28.2172C45.0101 27.8212 44.3575 27.6775 43.4745 27.7859C42.665 27.8853 42.0801 28.2929 41.7198 29.0089C41.3596 29.7248 41.1416 30.5352 41.066 31.4401C41.0271 32.3404 40.9976 33.165 40.9775 33.9138C40.9762 34.511 41.0699 33.3386 41.0491 34.386C41.0606 35.3921 41.0604 37.4544 41.0486 38.5753C41.0692 39.6549 41.074 39.6072 41.0629 40.4295C41.0841 41.2105 41.106 41.6929 41.1286 41.8767L42.002 48.9902C42.2762 49.7028 42.6424 50.4042 43.1007 51.0942Z" fill="#333356"/>
<path d="M114.056 32.9104C113.632 32.9252 113.203 32.8105 112.769 32.5663C112.382 32.2833 112.059 31.8499 111.803 31.2659C111.647 30.8637 111.539 30.4598 111.477 30.0543C111.416 29.6488 111.379 29.2609 111.366 28.8908C111.354 28.5576 111.343 28.2245 111.331 27.8913C111.365 27.5195 111.378 27.2041 111.369 26.945C111.336 25.9826 111.304 25.0757 111.274 24.2243C111.29 23.3343 111.285 22.5006 111.258 21.7233C111.237 21.131 111.194 20.5581 111.127 20.0045C111.108 19.4493 111.065 18.8949 110.998 18.3413C110.851 16.827 110.697 15.109 110.535 13.1875C110.421 11.2644 110.291 9.54561 110.143 8.03127C110.055 6.84842 110.132 5.65979 110.373 4.46538C110.661 3.23231 111.452 2.204 112.745 1.38045C113.3 1.0275 113.813 0.842771 114.284 0.826264C115.275 0.791598 116.027 1.37677 116.542 2.58178C117.102 3.74812 117.413 5.23818 117.477 7.05195C117.513 8.08838 117.501 9.10796 117.441 10.1107C117.429 11.1118 117.407 11.8352 117.375 12.2811C117.34 13.9871 117.282 15.7124 117.202 17.4571C117.119 19.1648 117.061 20.8901 117.028 22.6332C116.981 24.0061 116.983 25.4143 117.033 26.8579C117.131 28.2999 116.943 29.6962 116.471 31.0469C116.3 31.5718 115.985 32.009 115.525 32.3587C115.065 32.7083 114.575 32.8922 114.056 32.9104ZM113.625 44.9332C112.729 44.9645 111.917 44.6965 111.189 44.129C110.459 43.5245 110.072 42.5929 110.029 41.3344C109.972 39.7057 110.401 38.4677 111.316 37.6203C112.231 36.773 113.207 36.3311 114.245 36.2948C115.141 36.2635 115.954 36.55 116.684 37.1545C117.412 37.722 117.798 38.6535 117.844 39.9491C117.899 41.5408 117.469 42.7603 116.554 43.6076C115.639 44.455 114.663 44.8968 113.625 44.9332Z" fill="#333356"/>
<path d="M36.6867 9.78096C38.4408 10.1611 40.0017 10.9339 41.3473 12.2256C42.5355 10.9804 43.7757 9.81997 45.5688 9.74297C48.2698 9.62834 50.0164 12.3909 49.1644 15.4502C48.2413 18.7621 46.1873 21.3385 43.846 23.7104C43.7395 23.8182 43.5079 23.9538 43.4201 23.9069C39.3966 21.7799 35.0117 19.9996 33.0982 15.353C32.1414 13.0351 33.2301 11.1491 35.3686 9.94614C35.8085 9.89102 36.2469 9.83608 36.6867 9.78096ZM36.4069 18.3036C35.4181 15.4963 34.8869 13.3275 36.6787 11.2529C35.4813 11.1928 34.6913 11.5903 34.3431 12.6054C33.6098 14.7392 34.7826 16.2459 36.4069 18.3036ZM46.5818 11.0261C44.7723 10.694 43.6964 11.4699 42.7475 12.9912C44.1049 12.2957 45.2681 11.6993 46.5818 11.0261Z" fill="#71C100"/>
</svg>
